<?xml version="1.0" encoding="utf-8"?><svg viewBox="0 0 98 98" xmlns="http://www.w3.org/2000/svg" xmlns:xlink="http://www.w3.org/1999/xlink"><style>:root>svg{display:none}:root>svg:target{display:block}</style><svg fill="none" viewBox="0 0 98 98" id="adv-1" xmlns="http://www.w3.org/2000/svg"><ellipse cx="48.651" cy="33.641" rx="20.92" ry="20.186" fill="#D8E5C6"/><path d="M54.196 68.555l10.69-9.082 16.057 14.499-9.064 3.976-2.362 8.1-15.32-17.493z" fill="#83A958"/><path d="M49 23.484l2.25 7.018h7.283L52.64 34.84l2.25 7.018L49 37.52l-5.892 4.338 2.25-7.018-5.89-4.338h7.282L49 23.484z" fill="#FACD47"/><path d="M39.822 65.06H57.48v26.566l-8.265-3.573-9.393 3.573V65.06z" fill="#83A958"/><path d="M75.487 33.64c0 13.941-11.865 25.507-26.836 25.507-14.97 0-26.836-11.566-26.836-25.506S33.68 8.135 48.65 8.135c14.97 0 26.836 11.565 26.836 25.506z" stroke="#E8E4D8" stroke-width="7"/><path d="M48.41 57.422H49a23.781 23.781 0 10-.86-.017l.044.005c.075.008.15.012.227.012zM29.86 33.688A19.14 19.14 0 1149 52.828a19.162 19.162 0 01-19.14-19.14z" fill="#000"/><path d="M85.644 74.196l-15.39-15.39a32.86 32.86 0 0011.668-25.118C81.922 15.534 67.153.766 49 .766S16.078 15.534 16.078 33.688c0 14.115 8.93 26.183 21.438 30.854v30.395c-.058 1.779 2.123 2.945 3.57 1.912L49 91.573l7.913 5.276c1.45 1.033 3.628-.135 3.571-1.912V81.519l8.92 8.919c1.224 1.299 3.582.579 3.877-1.174l1.864-9.326 9.326-1.865c1.754-.293 2.47-2.66 1.173-3.876zM20.672 33.688C20.672 18.068 33.38 5.358 49 5.358s28.328 12.708 28.328 28.328S64.62 62.017 49 62.017 20.672 49.308 20.672 33.688zM50.274 86.9a2.297 2.297 0 00-2.548 0l-5.617 3.745V65.882c4.543.97 9.24.97 13.782 0v24.764l-5.617-3.745zm22.468-11.169a2.297 2.297 0 00-1.803 1.802l-1.323 6.62-9.132-9.132v-10.48a32.821 32.821 0 006.023-2.986L79.36 74.41l-6.618 1.322z" fill="#000"/><path d="M55.052 45.36c1.598.899 3.685-.614 3.324-2.415l-1.118-6.727 4.86-4.785c1.348-1.244.552-3.694-1.27-3.907l-6.744-1.016-3.05-6.1c-.767-1.667-3.341-1.667-4.108 0l-3.05 6.1-6.743 1.015c-1.824.215-2.619 2.663-1.27 3.908l4.859 4.785-1.118 6.727c-.36 1.8 1.722 3.313 3.324 2.415L49 42.218l6.052 3.142zm-10.144-6.193l.56-3.372a2.298 2.298 0 00-.654-2.013l-2.435-2.398 3.38-.51a2.297 2.297 0 001.713-1.244L49 26.574l1.528 3.057a2.295 2.295 0 001.713 1.244l3.38.509-2.436 2.4a2.297 2.297 0 00-.654 2.012l.56 3.372-3.033-1.576a2.297 2.297 0 00-2.116 0l-3.034 1.575z" fill="#000"/></svg><svg fill="none" viewBox="0 0 98 98" id="adv-2" xmlns="http://www.w3.org/2000/svg"><path d="M62.806 16.99v7.407l.406.39.39.405h14.797v61.58l-.407.39-.39.405H19.42l-.39-.406-.405-.39V10.396l.405-.39.39-.406h43.387v7.39z" fill="#D8E5C6"/><path d="M18.624 7.211c-.797.26-2.16 1.657-2.404 2.486-.293.974-.293 76.8 0 77.774.26.893 1.607 2.242 2.501 2.502.975.292 58.607.292 59.582 0 .893-.26 2.242-1.608 2.502-2.502.146-.52.195-7.96.195-32.406v-31.74l-8.171-8.155L64.674 7l-22.74.016c-16.082.016-22.904.065-23.31.195zm44.182 9.779v7.407l.406.39.39.405h14.797v61.58l-.407.39-.39.405H19.42l-.39-.406-.405-.39V10.396l.405-.39.39-.406h43.387v7.39zm8.203.081l5.522 5.523H65.405v-5.523c0-3.037.016-5.523.049-5.523.016 0 2.517 2.485 5.555 5.523z" fill="#000"/><path d="M71.009 17.071l5.522 5.523H65.405v-5.523c0-3.037.016-5.523.049-5.523.016 0 2.517 2.485 5.555 5.523z" fill="#fff"/><path d="M27.151 22.788c-.828.471-.974 1.364-.325 1.998l.39.406h26.997l.39-.405c.535-.536.52-1.137-.066-1.722l-.47-.471H40.762c-9.68.016-13.368.064-13.611.194zM27.136 30.586c-.764.357-.91 1.397-.309 1.998l.39.406h42.59l.39-.406c.568-.569.535-1.234-.098-1.77l-.504-.424-21.051.017c-14.164 0-21.18.065-21.408.179zM27.151 38.382c-.828.47-.974 1.364-.325 1.998l.39.406h42.59l.39-.406c.536-.536.52-1.137-.065-1.722l-.472-.47H48.56c-15.545.015-21.165.064-21.409.194zM27.136 46.18c-.764.356-.91 1.396-.309 1.997l.39.406h42.59l.39-.406c.535-.535.519-1.136-.066-1.721l-.471-.471L48.559 46c-14.163-.001-21.196.064-21.423.178zM27.136 53.976c-.764.358-.91 1.397-.309 1.998l.39.406h21.8l.39-.406c.535-.535.519-1.136-.066-1.721l-.471-.471-10.705.016c-7.001-.001-10.802.064-11.03.178z" fill="#000"/><path d="M61.506 53.944c-4.418.828-7.212 4.954-6.32 9.29.39 1.852 1.902 4.062 3.38 4.939.275.162.503.373.503.471 0 .081-.617 2.615-1.381 5.603-.747 2.99-1.348 5.442-1.332 5.458.016.016 1.478-.845 3.232-1.9l3.2-1.934 3.217 1.933c1.77 1.072 3.233 1.917 3.249 1.901.016-.016-.585-2.469-1.332-5.457-.763-2.99-1.381-5.523-1.381-5.604 0-.098.227-.309.503-.471 1.478-.877 2.99-3.087 3.379-4.938.796-3.834-1.381-7.683-5.068-8.95-1.088-.39-2.841-.536-3.849-.341z" fill="#A3C185" stroke="#000" stroke-width="2"/><path d="M27.151 61.772c-.828.471-.974 1.364-.325 1.998l.39.406h21.8l.389-.406c.536-.535.52-1.136-.065-1.721l-.472-.471H38.164c-7.732.016-10.785.064-11.013.194zM27.136 69.57c-.764.357-.91 1.396-.309 1.998l.39.406h21.8l.39-.406c.535-.536.519-1.138-.066-1.722l-.471-.47-10.705.015c-7.001 0-10.802.065-11.03.179zM27.151 77.367c-.828.47-.974 1.364-.325 1.998l.39.406h21.8l.389-.406c.536-.536.52-1.137-.065-1.722l-.472-.47H38.164c-7.732.014-10.785.064-11.013.194z" fill="#000"/></svg><svg fill="none" viewBox="0 0 98 98" id="adv-3" xmlns="http://www.w3.org/2000/svg"><path d="M71.56 14.753l-21.999-9.63a1.467 1.467 0 00-1.173 0l-22 9.63c-.535.233-.88.76-.88 1.343v23.027a16.154 16.154 0 006.688 13.065L47.4 63.154c.939.68 2.208.68 3.147 0l15.205-10.965a16.154 16.154 0 006.688-13.065V16.096c0-.583-.346-1.11-.88-1.343zm-2.052 24.371a13.213 13.213 0 01-5.471 10.686L48.974 60.674 33.912 49.81a13.213 13.213 0 01-5.471-10.686V17.055l20.533-8.987 20.534 8.987v22.07z" fill="#000"/><path d="M48.388 11.526l-16.134 7.063c-.534.233-.88.76-.88 1.344v19.19a10.267 10.267 0 004.254 8.308l12.488 9.008c.513.37 1.204.37 1.716 0l12.489-9.008a10.267 10.267 0 004.253-8.307V19.933c0-.583-.345-1.11-.88-1.344l-16.133-7.063a1.467 1.467 0 00-1.173 0zM63.64 20.89v18.234a7.333 7.333 0 01-3.036 5.928l-11.63 8.39-11.631-8.39a7.333 7.333 0 01-3.036-5.928V20.89l14.666-6.42 14.667 6.42z" fill="#000"/><path d="M63.641 20.89v18.234a7.333 7.333 0 01-3.036 5.928l-11.63 8.39-11.631-8.39a7.333 7.333 0 01-3.036-5.928V20.89l14.666-6.42 14.667 6.42z" fill="#D8E5C6"/><path fill-rule="evenodd" clip-rule="evenodd" d="M69.508 39.124a13.213 13.213 0 01-5.471 10.686L48.974 60.674 33.912 49.81a13.213 13.213 0 01-5.471-10.686V17.055l20.533-8.987 20.534 8.987v22.07zM32.254 18.59l16.134-7.063c.374-.164.799-.164 1.173 0l16.133 7.063c.535.233.88.76.88 1.344v19.19a10.267 10.267 0 01-4.253 8.308L49.832 56.44c-.512.37-1.203.37-1.716 0l-12.488-9.008a10.267 10.267 0 01-4.254-8.307V19.933c0-.583.346-1.11.88-1.344z" fill="#96B275"/><path d="M17.126 53.692l-3.173-7.412a4.675 4.675 0 10-8.555 3.776L11.146 62.7a15.576 15.576 0 003.184 4.597l9.04 9.04a2.916 2.916 0 00-.796 1.995v11.733A2.933 2.933 0 0025.508 93H41.64a2.933 2.933 0 002.933-2.934V78.332a2.933 2.933 0 00-2.933-2.933v-2.73a15.367 15.367 0 00-3.215-9.606 10.56 10.56 0 00-4.888-3.566 29.01 29.01 0 01-8.397-5.388 6.747 6.747 0 00-8.015-.417zM41.64 90.065H25.508V78.332H41.64v11.733zm-5.504-25.17a12.444 12.444 0 012.57 7.774v2.73H26.58L16.404 65.223a12.684 12.684 0 01-2.588-3.736L8.067 48.843a1.744 1.744 0 113.188-1.408l3.281 7.652a17.307 17.307 0 003.699 5.463l6.7 6.701a1.467 1.467 0 102.074-2.074l-6.7-6.7a14.454 14.454 0 01-1.808-2.2 3.813 3.813 0 014.75.078 31.27 31.27 0 009.357 5.926 7.703 7.703 0 013.528 2.613z" fill="#000"/><path d="M41.641 90.065H25.508V78.332H41.64v11.733z" fill="#96B275"/><path fill-rule="evenodd" clip-rule="evenodd" d="M36.137 64.894a12.444 12.444 0 012.57 7.775v2.73H26.58L16.404 65.223a12.684 12.684 0 01-2.588-3.736L8.067 48.843a1.744 1.744 0 113.188-1.408l3.281 7.652a17.307 17.307 0 003.699 5.463l6.7 6.701a1.467 1.467 0 102.074-2.074l-6.7-6.7a14.454 14.454 0 01-1.808-2.2 3.813 3.813 0 014.75.078 31.27 31.27 0 009.357 5.926 7.703 7.703 0 013.528 2.613z" fill="#FFDECF"/><path d="M37.241 82.733h-1.467a1.467 1.467 0 000 2.933h1.467a1.467 1.467 0 000-2.933zM86.803 62.7l5.748-12.643a4.676 4.676 0 10-8.554-3.777l-3.165 7.385a6.764 6.764 0 00-8.024.44 29.014 29.014 0 01-8.397 5.388 10.56 10.56 0 00-4.888 3.566 15.368 15.368 0 00-3.215 9.61v2.73a2.933 2.933 0 00-2.934 2.933v11.734a2.933 2.933 0 002.934 2.933H72.44a2.933 2.933 0 002.933-2.933V78.332a2.916 2.916 0 00-.795-1.994l9.04-9.04a15.576 15.576 0 003.184-4.597zM72.44 90.067H56.308V78.332H72.44v11.734zm-1.072-14.667H59.24v-2.73a12.445 12.445 0 012.571-7.773 7.709 7.709 0 013.52-2.615 31.258 31.258 0 009.359-5.925 3.813 3.813 0 014.76-.093c-.531.797-1.14 1.54-1.818 2.215l-6.7 6.701a1.467 1.467 0 002.074 2.074l6.7-6.701a17.305 17.305 0 003.699-5.463l3.28-7.653a1.74 1.74 0 013.068-.256c.32.498.367 1.126.121 1.665L84.127 61.49a12.684 12.684 0 01-2.588 3.736l-10.17 10.174z" fill="#000"/><path d="M72.441 90.066H56.308V78.332H72.44v11.734z" fill="#83A958"/><path d="M59.241 75.4h12.128l10.17-10.175a12.684 12.684 0 002.588-3.736l5.748-12.644a1.744 1.744 0 10-3.188-1.41l-3.281 7.654a17.305 17.305 0 01-3.7 5.463l-6.699 6.701a1.467 1.467 0 01-2.074-2.074l6.7-6.7a14.375 14.375 0 001.817-2.215 3.813 3.813 0 00-4.76.092 31.258 31.258 0 01-9.358 5.925 7.709 7.709 0 00-3.52 2.615 12.445 12.445 0 00-2.571 7.774v2.73z" fill="#FFDECF"/><path d="M62.174 82.733h-1.466a1.467 1.467 0 000 2.933h1.466a1.467 1.467 0 000-2.933z" fill="#000"/><path d="M41.054 36.092a1.467 1.467 0 10-1.76 2.347l5.867 4.4a1.467 1.467 0 002.1-.36l11.734-17.6a1.467 1.467 0 10-2.44-1.627L45.68 39.562l-4.626-3.47z" fill="#83A958"/></svg><svg fill="none" viewBox="0 0 98 98" id="adv-4" xmlns="http://www.w3.org/2000/svg"><path d="M38.408 9.613l7.9-.784 8.151 3.847 3.53 7.573v8.391l-7.91 1.587-8.636-4.087-3.035-8.175V9.613zM86.779 23.51l-7.752-2.908-9.282 1.738-5.65 6.766-2.316 8.54 7.54 3.727 9.839-1.853 5.316-7.51 2.305-8.5z" fill="#A3C185"/><path fill="#83A958" d="M9.701 53.33h11.084v35.509H9.701z"/><path d="M22.862 57.862l13.758 1.64 8.488 5.977 16.1 1.64 1.853 2.989 5.256 1.793 13.087-7.415 3.61.993 1.562 4.629-26.832 15.427-15.1-1.245-10.988-5.548-10.794-1.885V57.862z" fill="#FFDECF"/><path d="M40.287 27.384c4.352 4.355 10.626 4.575 11.84 4.575l5.775-.003v26.337a1.385 1.385 0 102.77 0V23.688c.012-.297.238-7.317-4.57-12.126C51.871 7.33 45.985 7 44.283 7l-7.172.003c-.767 0-1.387.62-1.387 1.386l.002 6.867c-.013.297-.248 7.317 4.56 12.128zm-1.79-12.07V9.776l5.787-.002c1.02 0 6.292.18 9.857 3.75 3.936 3.935 3.767 9.995 3.764 10.11v3.578L43.636 12.944a1.385 1.385 0 10-1.96 1.96l14.281 14.28-3.83.003c-1.022 0-6.3-.182-9.88-3.764-3.932-3.934-3.752-9.993-3.75-10.108z" fill="#000"/><path d="M59.279 38.275c-.051.182-.065.37-.04.56.003.023.018.043.022.066.028.15.067.299.147.437.074.13.177.227.282.32.026.025.042.057.07.08.146.113.311.197.488.243.004.001.007 0 .011.002l6.626 1.753.281.079c1.173.31 7.291 1.704 12.63-1.385 5.908-3.415 7.518-10.258 7.57-10.491l1.815-6.695a1.376 1.376 0 00-.976-1.694l-6.64-1.756-.28-.08c-1.173-.31-7.289-1.702-12.63 1.386-5.906 3.416-7.513 10.26-7.564 10.492l-1.812 6.683zm10.756-14.78c4.391-2.539 9.536-1.365 10.523-1.103l5.581 1.482-1.465 5.409c-.014.059-1.426 5.958-6.26 8.752-4.388 2.54-9.535 1.363-10.522 1.102l-3.684-.977 17.52-10.134a1.382 1.382 0 10-1.38-2.395L62.83 35.764l.953-3.52c.014-.059 1.394-5.938 6.254-8.75zM84.286 62.64c-1.43-.385-2.925-.188-4.121.507L64.21 70.912c-2.48 1.24-4.984 1.24-10.47 1.24-5.364 0-13.552-1.354-13.635-1.366a1.385 1.385 0 10-.455 2.734c.344.058 8.495 1.405 14.09 1.405 5.755 0 8.644 0 11.695-1.526l16.03-7.806a2.755 2.755 0 012.102-.277 2.755 2.755 0 011.683 1.292c.765 1.324.31 3.023-1.052 3.81L65.456 82.085c-.04.026-4.039 2.545-13.102 2.545-7.858 0-19.998-6.69-20.173-6.786-.127-.062-3.133-1.532-8.937-1.532a1.386 1.386 0 100 2.773c5.041 0 7.64 1.213 7.645 1.213v-.002c.524.291 12.887 7.106 21.466 7.106 10.008 0 14.447-2.883 14.594-2.982l18.675-11.623a5.553 5.553 0 002.03-7.574 5.507 5.507 0 00-3.368-2.583zM15.931 81.163c0-1.146-.933-2.079-2.08-2.079-1.146 0-2.079.933-2.079 2.08 0 1.146.933 2.079 2.08 2.079 1.146 0 2.08-.933 2.08-2.08z" fill="#000"/><path d="M18.703 51.36h-8.317a1.386 1.386 0 100 2.772h8.317c.766 0 1.387.622 1.387 1.386v30.497c0 .764-.621 1.386-1.387 1.386h-8.317a1.386 1.386 0 100 2.773h8.317a4.164 4.164 0 004.16-4.16V55.519a4.164 4.164 0 00-4.16-4.159z" fill="#000"/><path d="M23.244 59.677h11.09c1.617 0 4.366 2.063 6.792 3.881 3.041 2.282 5.915 4.436 8.456 4.436h8.317c2.106 0 3.151.955 3.179.98a1.382 1.382 0 001.96 0 1.385 1.385 0 000-1.96c-.183-.183-1.885-1.792-5.139-1.792h-8.317c-1.618 0-4.367-2.063-6.793-3.882-3.04-2.281-5.915-4.436-8.455-4.436h-11.09a1.386 1.386 0 100 2.773z" fill="#000"/><path d="M61.59 67.673l4.999 4.508" stroke="#000" stroke-width="3"/></svg><svg fill="none" viewBox="0 0 22 22" id="footer-adres" xmlns="http://www.w3.org/2000/svg"><path d="M11 10.313a2.75 2.75 0 100-5.5 2.75 2.75 0 000 5.5z" stroke="#1A2112" stroke-width="2.188" stroke-linecap="round" stroke-linejoin="round"/><path d="M16.5 10.313C14.437 15.125 11 20.624 11 20.624s-3.438-5.5-5.5-10.313C3.437 5.5 6.875 1.376 11 1.376s7.563 4.125 5.5 8.938z" stroke="#1A2112" stroke-width="2.188" stroke-linecap="round" stroke-linejoin="round"/></svg><svg fill="none" viewBox="0 0 20 20" id="footer-mail" xmlns="http://www.w3.org/2000/svg"><path d="M19.286 2.286H.714A.714.714 0 000 3v14.286c0 .395.32.714.714.714h18.572c.395 0 .714-.32.714-.714V3a.714.714 0 00-.714-.714zm-.893 2.473v11.634H1.607V4.759l-.616-.48.877-1.127.956.743h14.355l.955-.743.877 1.127-.618.48zm-1.214-.866L10 9.473l-7.179-5.58-.955-.743L.99 4.277l.616.48 7.625 5.928a1.25 1.25 0 001.533 0l7.63-5.926.616-.48-.877-1.127-.953.74z" fill="#1A2112"/></svg><svg fill="none" viewBox="0 0 18 18" id="footer-phone" xmlns="http://www.w3.org/2000/svg"><path d="M3.62 7.79c1.44 2.83 3.76 5.14 6.59 6.59l2.2-2.2c.27-.27.67-.36 1.02-.24 1.12.37 2.33.57 3.57.57.55 0 1 .45 1 1V17c0 .55-.45 1-1 1C7.61 18 0 10.39 0 1c0-.55.45-1 1-1h3.5c.55 0 1 .45 1 1 0 1.25.2 2.45.57 3.57.11.35.03.74-.25 1.02l-2.2 2.2z" fill="#1A2112"/></svg><svg fill="none" viewBox="0 0 24 24" id="inst" xmlns="http://www.w3.org/2000/svg"><g clip-path="url(#hclip0)"><path d="M7.057 0C3.183 0 0 3.179 0 7.057v9.886C0 20.817 3.179 24 7.057 24h9.886C20.817 24 24 20.821 24 16.943V7.058C24 3.183 20.821 0 16.943 0H7.057zm0 2.182h9.886a4.869 4.869 0 014.875 4.875v9.886a4.87 4.87 0 01-4.875 4.875H7.058a4.868 4.868 0 01-4.876-4.875V7.058a4.869 4.869 0 014.875-4.876zm11.386 2.387a.984.984 0 00-.989.988c0 .55.44.988.989.988a.984.984 0 00.99-.988.986.986 0 00-.99-.988zM12 5.455C8.4 5.455 5.455 8.4 5.455 12S8.4 18.546 12 18.546 18.546 15.6 18.546 12 15.6 5.455 12 5.455zm0 2.181A4.344 4.344 0 0116.364 12 4.344 4.344 0 0112 16.364 4.344 4.344 0 017.636 12 4.344 4.344 0 0112 7.636z" fill="#1A2112"/></g><defs><clipPath id="hclip0"><path fill="#fff" d="M0 0h24v24H0z"/></clipPath></defs></svg><svg fill="none" viewBox="0 0 25 26" id="location-mail" xmlns="http://www.w3.org/2000/svg"><path fill-rule="evenodd" clip-rule="evenodd" d="M23.958 21.596V7.042l-11.459 9.356L1.041 7.042v14.554h22.917zm-11.459-8.317l10.417-8.316H2.083l10.416 8.316z" fill="#96B275"/></svg><svg fill="none" viewBox="0 0 30 31" id="location-map-pin" xmlns="http://www.w3.org/2000/svg"><path d="M15 15.15a3.128 3.128 0 01-2.21-.913 3.115 3.115 0 010-4.41 3.128 3.128 0 014.42 0 3.115 3.115 0 01-1.014 5.086c-.38.157-.786.237-1.196.237zM15 3.3c-2.32 0-4.546.92-6.187 2.557a8.724 8.724 0 00-2.563 6.175C6.25 18.58 15 28.249 15 28.249s8.75-9.668 8.75-16.217a8.724 8.724 0 00-2.563-6.175A8.76 8.76 0 0015 3.299z" fill="#96B275"/></svg><svg fill="none" viewBox="0 0 30 31" id="location-phone" xmlns="http://www.w3.org/2000/svg"><path d="M26.25 19.235l-6.587-.76-3.15 3.143a18.788 18.788 0 01-8.238-8.221l3.162-3.156-.762-6.55H3.787c-.724 12.7 9.738 23.142 22.463 22.418v-6.874z" fill="#96B275"/></svg><svg fill="none" viewBox="0 0 22 23" id="location-time" xmlns="http://www.w3.org/2000/svg"><g clip-path="url(#lclip0)"><path fill-rule="evenodd" clip-rule="evenodd" d="M22 11.776c0 2.912-1.159 5.704-3.222 7.763A11.011 11.011 0 0111 22.754a11.011 11.011 0 01-7.778-3.215A10.967 10.967 0 010 11.776c0-2.911 1.159-5.704 3.222-7.763A11.011 11.011 0 0111 .798c2.917 0 5.715 1.157 7.778 3.215A10.967 10.967 0 0122 11.776zM11 5.601a.685.685 0 00-.688-.686.688.688 0 00-.687.686v7.547a.685.685 0 00.347.596l4.812 2.744a.689.689 0 00.992-.776.686.686 0 00-.31-.415L11 12.75V5.601z" fill="#96B275"/></g><defs><clipPath id="lclip0"><path fill="#fff" transform="translate(0 .798)" d="M0 0h22v21.956H0z"/></clipPath></defs></svg><svg viewBox="0 0 18 19" id="phone-ico" xmlns="http://www.w3.org/2000/svg"><path d="M3.62 8.29c1.44 2.83 3.76 5.14 6.59 6.59l2.2-2.2c.27-.27.67-.36 1.02-.24 1.12.37 2.33.57 3.57.57.55 0 1 .45 1 1v3.49c0 .55-.45 1-1 1-9.39 0-17-7.61-17-17 0-.55.45-1 1-1h3.5c.55 0 1 .45 1 1 0 1.25.2 2.45.57 3.57.11.35.03.74-.25 1.02l-2.2 2.2z"/></svg><svg fill="none" viewBox="0 0 24 24" id="vk" xmlns="http://www.w3.org/2000/svg"><path d="M4.453 0A4.47 4.47 0 000 4.453v15.094A4.47 4.47 0 004.453 24h15.094A4.47 4.47 0 0024 19.547V4.453A4.47 4.47 0 0019.547 0H4.453zm0 2.182h15.094a2.257 2.257 0 012.271 2.271v15.094a2.257 2.257 0 01-2.271 2.271H4.453a2.256 2.256 0 01-2.271-2.271V4.453a2.257 2.257 0 012.271-2.271zm7.24 5.705c-.801-.007-1.483 0-1.866.188-.256.124-.452.405-.333.418.15.022.486.094.666.337.229.31.221 1.014.221 1.014s.128 1.934-.312 2.178c-.302.166-.716-.171-1.61-1.71-.456-.792-.8-1.665-.8-1.665s-.066-.163-.184-.248c-.145-.106-.346-.14-.346-.14l-2.135.012s-.32.013-.434.15c-.107.127-.009.378-.009.378s1.67 3.908 3.562 5.877c1.735 1.808 3.704 1.688 3.704 1.688h.894s.269-.03.405-.175c.129-.136.124-.393.124-.393s-.017-1.196.537-1.375c.55-.171 1.248 1.158 1.994 1.67.567.387.997.302.997.302l1.996-.03s1.04-.064.545-.886c-.038-.063-.286-.605-1.478-1.713-1.253-1.159-1.087-.97.421-2.978.916-1.223 1.283-1.97 1.167-2.293-.109-.302-.783-.222-.783-.222l-2.246.013s-.166-.021-.29.052a.628.628 0 00-.196.242s-.357.946-.83 1.752c-.998 1.695-1.403 1.789-1.564 1.683-.38-.248-.286-.99-.286-1.513 0-1.65.25-2.331-.486-2.51-.243-.06-.422-.097-1.043-.103h-.002z" fill="#1A2112"/></svg><svg fill="none" viewBox="0 0 24 24" id="whatsapp" xmlns="http://www.w3.org/2000/svg"><g clip-path="url(#oclip0)"><path fill-rule="evenodd" clip-rule="evenodd" d="M20.504 3.488A11.878 11.878 0 0016.628.901 11.922 11.922 0 0012.05 0C5.465 0 .1 5.336.1 11.891a11.787 11.787 0 001.594 5.946L0 24l6.336-1.657a12 12 0 005.71 1.45h.005c6.586 0 11.945-5.334 11.949-11.894 0-3.177-1.242-6.163-3.496-8.412v.001zM12.05 21.784h-.004a9.964 9.964 0 01-5.055-1.377l-.363-.214-3.762.98 1.004-3.648-.234-.373a9.826 9.826 0 01-1.52-5.261c0-5.447 4.457-9.88 9.938-9.88a9.902 9.902 0 017.02 2.897 9.793 9.793 0 012.905 6.991c0 5.452-4.457 9.885-9.93 9.885h.001zm5.445-7.404c-.297-.148-1.766-.866-2.039-.964-.273-.101-.473-.148-.672.147-.2.3-.77.969-.945 1.167-.172.194-.348.222-.645.074-.3-.148-1.261-.463-2.402-1.478-.887-.786-1.488-1.761-1.66-2.057-.176-.299-.02-.458.129-.607.136-.132.3-.346.449-.521.148-.17.2-.295.3-.494.098-.198.048-.373-.027-.52-.074-.148-.671-1.614-.921-2.21-.243-.579-.489-.497-.672-.508-.172-.008-.371-.008-.57-.008-.2 0-.524.074-.798.373-.273.296-1.043 1.016-1.043 2.477 0 1.462 1.07 2.877 1.22 3.076.148.194 2.105 3.196 5.1 4.484.712.306 1.266.49 1.7.626.715.225 1.367.194 1.883.12.574-.085 1.765-.72 2.015-1.415.247-.692.247-1.287.172-1.412-.074-.124-.273-.199-.574-.35z" fill="#1A2112"/></g><defs><clipPath id="oclip0"><path fill="#fff" d="M0 0h24v24H0z"/></clipPath></defs></svg></svg>